name Precision Landing16_filtered_grf.mot
datacolumns 37
datarows 5
range 1.711000 1.713000
endheader
time	1_ground_force_vx	1_ground_force_vy	1_ground_force_vz	1_ground_force_px	1_ground_force_py	1_ground_force_pz	1_ground_torque_x	1_ground_torque_y	1_ground_torque_z	2_ground_force_vx	2_ground_force_vy	2_ground_force_vz	2_ground_force_px	2_ground_force_py	2_ground_force_pz	2_ground_torque_x	2_ground_torque_y	2_ground_torque_z	3_ground_force_vx	3_ground_force_vy	3_ground_force_vz	3_ground_force_px	3_ground_force_py	3_ground_force_pz	3_ground_torque_x	3_ground_torque_y	3_ground_torque_z	4_ground_force_vx	4_ground_force_vy	4_ground_force_vz	4_ground_force_px	4_ground_force_py	4_ground_force_pz	4_ground_torque_x	4_ground_torque_y	4_ground_torque_z
            1.711000	            6.335558	          300.133926	           18.040615	            0.076191	            0.000000	            0.328907	            0.132380	            6.271230	            0.376955	           13.856358	          443.485393	           11.565134	           -0.156195	            0.000000	            0.351458	            0.069294	            2.217802	            0.057835	            5.499293	           -0.591053	           -0.892574	            0.353269	            1.255223	            1.891696	            0.001508	           -0.000162	           -0.000245	          -18.475223	            0.699646	           -2.671966	           -0.289247	            1.264832	            1.901557	            0.007638	           -0.000289	            0.001105
            1.711500	            6.258058	          299.781567	           18.169659	            0.076150	            0.000000	            0.328813	            0.130476	            6.250244	            0.378825	           13.814409	          443.594908	           11.547096	           -0.156120	            0.000000	            0.351376	            0.068990	            2.215354	            0.057667	            5.513132	           -0.571032	           -0.898769	            0.353273	            1.255223	            1.891694	            0.001491	           -0.000154	           -0.000243	          -18.456841	            0.699617	           -2.679464	           -0.289244	            1.264831	            1.901557	            0.007449	           -0.000282	            0.001081
            1.712000	            6.179681	          299.429055	           18.299450	            0.076108	            0.000000	            0.328719	            0.128554	            6.228911	            0.380677	           13.770617	          443.708159	           11.526472	           -0.156045	            0.000000	            0.351295	            0.068664	            2.212439	            0.057474	            5.527470	           -0.552030	           -0.904775	            0.353277	            1.255223	            1.891692	            0.001474	           -0.000147	           -0.000241	          -18.439357	            0.700512	           -2.687834	           -0.289241	            1.264831	            1.901556	            0.007239	           -0.000275	            0.001055
            1.712500	            6.100470	          299.076359	           18.429829	            0.076067	            0.000000	            0.328626	            0.126613	            6.207231	            0.382505	           13.724967	          443.825412	           11.503245	           -0.155969	            0.000000	            0.351214	            0.068313	            2.209053	            0.057255	            5.542202	           -0.534125	           -0.910559	            0.353281	            1.255223	            1.891690	            0.001458	           -0.000141	           -0.000240	          -18.422946	            0.702348	           -2.696970	           -0.289238	            1.264830	            1.901555	            0.007011	           -0.000267	            0.001026
            1.713000	            6.020476	          298.723435	           18.560636	            0.076026	            0.000000	            0.328532	            0.124657	            6.185206	            0.384307	           13.677459	          443.946925	           11.477407	           -0.155892	            0.000000	            0.351133	            0.067939	            2.205191	            0.057011	            5.557235	           -0.517388	           -0.916000	            0.353284	            1.255223	            1.891687	            0.001444	           -0.000134	           -0.000238	          -18.407804	            0.705083	           -2.706546	           -0.289235	            1.264829	            1.901554	            0.006764	           -0.000259	            0.000995
